<?xml version="1.0" encoding="UTF-8"?>
<svg version="1.1" xmlns="http://www.w3.org/2000/svg" width="256" height="256">
<path d="M0 0 C0.80050781 -0.02900391 1.60101563 -0.05800781 2.42578125 -0.08789062 C13.80943197 -0.20590295 22.87444996 5.06316233 32.375 10.8125 C34.49949073 12.07507607 36.62449995 13.33678006 38.75 14.59765625 C39.80316406 15.22559082 40.85632813 15.85352539 41.94140625 16.50048828 C46.38983808 19.13588587 50.87927918 21.6963957 55.375 24.25 C57.0769802 25.22107856 58.77879965 26.1924389 60.48046875 27.1640625 C63.41263263 28.83727599 66.34555522 30.50912231 69.27978516 32.17871094 C71.59944421 33.49983259 73.91808781 34.82253033 76.23486328 36.14868164 C78.46934223 37.42771622 80.70586796 38.70318448 82.94482422 39.97436523 C97.17683945 48.13851003 109.48873056 56.10984091 115 72.3125 C116.08867838 77.4605539 116.16072762 82.45616114 116.17700195 87.69165039 C116.18357315 88.61774109 116.19014435 89.54383179 116.19691467 90.49798584 C116.21656599 93.55204361 116.22829365 96.60605232 116.23828125 99.66015625 C116.24235678 100.70858641 116.2464323 101.75701656 116.25063133 102.83721733 C116.27145987 108.38944168 116.28577405 113.94164157 116.29516602 119.49389648 C116.30620817 125.20076665 116.34059233 130.90724454 116.38033772 136.61397648 C116.40660529 141.02634864 116.41486696 145.43862886 116.41844749 149.85107231 C116.42328925 151.95320718 116.43483353 154.05533862 116.45348549 156.15739632 C116.57283268 170.50211034 116.07712077 182.90835024 108 195.3125 C107.34 195.3125 106.68 195.3125 106 195.3125 C105.62742065 196.19832764 105.62742065 196.19832764 105.24731445 197.10205078 C101.14288144 204.37579056 91.39047004 208.57457485 84.3125 212.4375 C82.26587777 213.57363265 80.22033059 214.71170375 78.17578125 215.8515625 C77.14533691 216.42551758 76.11489258 216.99947266 75.05322266 217.59082031 C70.32450377 220.25729445 65.66198823 223.03150214 61 225.8125 C49.76932634 232.49563473 38.40444485 238.93142847 27 245.3125 C26.16750732 245.78131592 25.33501465 246.25013184 24.47729492 246.7331543 C23.68814697 247.17570557 22.89899902 247.61825684 22.0859375 248.07421875 C21.39419434 248.46311279 20.70245117 248.85200684 19.98974609 249.25268555 C10.39045239 254.3656345 -1.32689687 254.99683178 -11.875 252.4375 C-20.03507528 249.50581733 -27.53804104 244.65877829 -35 240.3125 C-35.93247559 239.77093262 -36.86495117 239.22936523 -37.82568359 238.67138672 C-42.87635529 235.73573104 -47.92034619 232.78886156 -52.9609375 229.8359375 C-58.59773355 226.53894359 -64.26215651 223.292571 -69.9375 220.0625 C-76.49817976 216.3239047 -83.04587049 212.56495676 -89.5625 208.75 C-90.25915771 208.34426758 -90.95581543 207.93853516 -91.67358398 207.52050781 C-98.49820727 203.50873026 -98.49820727 203.50873026 -101 201.3125 C-101 200.6525 -101 199.9925 -101 199.3125 C-101.556875 199.126875 -102.11375 198.94125 -102.6875 198.75 C-109.34752365 194.6099853 -111.98061482 186.5189334 -114 179.3125 C-114.92393678 173.97519223 -115.14832901 168.84111317 -115.14526367 163.4465332 C-115.14862228 162.58696518 -115.1519809 161.72739716 -115.15544128 160.84178162 C-115.16489666 158.01559989 -115.16689185 155.18947779 -115.16796875 152.36328125 C-115.17118573 150.38421098 -115.17455013 148.40514095 -115.17805481 146.42607117 C-115.18403302 142.28119354 -115.18589612 138.13633671 -115.18530273 133.99145508 C-115.18520134 128.70725439 -115.19883647 123.42318873 -115.21607494 118.13901997 C-115.22725225 114.05095317 -115.22922017 109.96291838 -115.22869301 105.87483788 C-115.22986516 103.9281995 -115.23424343 101.98156008 -115.24202538 100.0349369 C-115.30551929 82.50795059 -115.09405301 66.9301685 -102.39453125 53.453125 C-98.29632394 49.78947474 -93.70392877 47.10723941 -88.93261719 44.40771484 C-86.89554703 43.25330647 -84.87285573 42.07633201 -82.8515625 40.89453125 C-78.84136885 38.55448085 -74.8193051 36.23559283 -70.79443359 33.92089844 C-67.7738148 32.18231408 -64.75584124 30.43920018 -61.73828125 28.6953125 C-56.22854151 25.51141559 -50.71522942 22.3337671 -45.20068359 19.15820312 C-42.12731045 17.38591472 -39.05752852 15.60754614 -35.98828125 13.828125 C-34.13813441 12.76021986 -32.28787994 11.69250119 -30.4375 10.625 C-29.6120166 10.14426025 -28.7865332 9.66352051 -27.93603516 9.16821289 C-18.68810016 3.84908331 -10.73050386 0.1247733 0 0 Z " fill="#2A2A6E" transform="translate(127,1.6875)"/>
<path d="M0 0 C0.80050781 -0.02900391 1.60101563 -0.05800781 2.42578125 -0.08789062 C13.80943197 -0.20590295 22.87444996 5.06316233 32.375 10.8125 C34.49949073 12.07507607 36.62449995 13.33678006 38.75 14.59765625 C39.80316406 15.22559082 40.85632813 15.85352539 41.94140625 16.50048828 C46.38983808 19.13588587 50.87927918 21.6963957 55.375 24.25 C57.0769802 25.22107856 58.77879965 26.1924389 60.48046875 27.1640625 C63.41263263 28.83727599 66.34555522 30.50912231 69.27978516 32.17871094 C71.59944421 33.49983259 73.91808781 34.82253033 76.23486328 36.14868164 C78.46934223 37.42771622 80.70586796 38.70318448 82.94482422 39.97436523 C97.17683945 48.13851003 109.48873056 56.10984091 115 72.3125 C116.08867838 77.4605539 116.16072762 82.45616114 116.17700195 87.69165039 C116.18357315 88.61774109 116.19014435 89.54383179 116.19691467 90.49798584 C116.21656599 93.55204361 116.22829365 96.60605232 116.23828125 99.66015625 C116.24235678 100.70858641 116.2464323 101.75701656 116.25063133 102.83721733 C116.27145987 108.38944168 116.28577405 113.94164157 116.29516602 119.49389648 C116.30620817 125.20076665 116.34059233 130.90724454 116.38033772 136.61397648 C116.40660529 141.02634864 116.41486696 145.43862886 116.41844749 149.85107231 C116.42328925 151.95320718 116.43483353 154.05533862 116.45348549 156.15739632 C116.57283268 170.50211034 116.07712077 182.90835024 108 195.3125 C107.34 195.3125 106.68 195.3125 106 195.3125 C105.62742065 196.19832764 105.62742065 196.19832764 105.24731445 197.10205078 C101.14288144 204.37579056 91.39047004 208.57457485 84.3125 212.4375 C82.26587777 213.57363265 80.22033059 214.71170375 78.17578125 215.8515625 C77.14533691 216.42551758 76.11489258 216.99947266 75.05322266 217.59082031 C70.32450377 220.25729445 65.66198823 223.03150214 61 225.8125 C49.76932634 232.49563473 38.40444485 238.93142847 27 245.3125 C26.16750732 245.78131592 25.33501465 246.25013184 24.47729492 246.7331543 C23.68814697 247.17570557 22.89899902 247.61825684 22.0859375 248.07421875 C21.39419434 248.46311279 20.70245117 248.85200684 19.98974609 249.25268555 C10.39045239 254.3656345 -1.32689687 254.99683178 -11.875 252.4375 C-20.03507528 249.50581733 -27.53804104 244.65877829 -35 240.3125 C-35.93247559 239.77093262 -36.86495117 239.22936523 -37.82568359 238.67138672 C-42.87635529 235.73573104 -47.92034619 232.78886156 -52.9609375 229.8359375 C-58.59773355 226.53894359 -64.26215651 223.292571 -69.9375 220.0625 C-76.49817976 216.3239047 -83.04587049 212.56495676 -89.5625 208.75 C-90.25915771 208.34426758 -90.95581543 207.93853516 -91.67358398 207.52050781 C-98.49820727 203.50873026 -98.49820727 203.50873026 -101 201.3125 C-101 200.6525 -101 199.9925 -101 199.3125 C-101.556875 199.126875 -102.11375 198.94125 -102.6875 198.75 C-109.34752365 194.6099853 -111.98061482 186.5189334 -114 179.3125 C-114.92393678 173.97519223 -115.14832901 168.84111317 -115.14526367 163.4465332 C-115.14862228 162.58696518 -115.1519809 161.72739716 -115.15544128 160.84178162 C-115.16489666 158.01559989 -115.16689185 155.18947779 -115.16796875 152.36328125 C-115.17118573 150.38421098 -115.17455013 148.40514095 -115.17805481 146.42607117 C-115.18403302 142.28119354 -115.18589612 138.13633671 -115.18530273 133.99145508 C-115.18520134 128.70725439 -115.19883647 123.42318873 -115.21607494 118.13901997 C-115.22725225 114.05095317 -115.22922017 109.96291838 -115.22869301 105.87483788 C-115.22986516 103.9281995 -115.23424343 101.98156008 -115.24202538 100.0349369 C-115.30551929 82.50795059 -115.09405301 66.9301685 -102.39453125 53.453125 C-98.29632394 49.78947474 -93.70392877 47.10723941 -88.93261719 44.40771484 C-86.89554703 43.25330647 -84.87285573 42.07633201 -82.8515625 40.89453125 C-78.84136885 38.55448085 -74.8193051 36.23559283 -70.79443359 33.92089844 C-67.7738148 32.18231408 -64.75584124 30.43920018 -61.73828125 28.6953125 C-56.22854151 25.51141559 -50.71522942 22.3337671 -45.20068359 19.15820312 C-42.12731045 17.38591472 -39.05752852 15.60754614 -35.98828125 13.828125 C-34.13813441 12.76021986 -32.28787994 11.69250119 -30.4375 10.625 C-29.6120166 10.14426025 -28.7865332 9.66352051 -27.93603516 9.16821289 C-18.68810016 3.84908331 -10.73050386 0.1247733 0 0 Z M-28.875 20.0625 C-30.58858368 21.06426842 -32.30218166 22.06601302 -34.01647949 23.06655884 C-35.20420675 23.76006772 -36.39145841 24.45439175 -37.57824707 25.14950562 C-43.51798891 28.62636141 -49.49864606 32.02984233 -55.48190308 35.43106079 C-59.54633705 37.74462497 -63.60263629 40.07241455 -67.65966797 42.39892578 C-69.85754632 43.65802317 -72.05705005 44.91428827 -74.25830078 46.16748047 C-77.28288487 47.89226653 -80.29866245 49.63152109 -83.3125 51.375 C-84.19518555 51.87467285 -85.07787109 52.3743457 -85.98730469 52.88916016 C-95.44779518 58.40624042 -102.98461341 65.3943992 -106 76.3125 C-107.08732429 83.74646519 -106.77298583 91.33296736 -106.69140625 98.82421875 C-106.68782305 101.00510919 -106.68647301 103.18600433 -106.6872406 105.36689758 C-106.68256942 109.91848093 -106.65787969 114.46934858 -106.61743164 119.02075195 C-106.56637342 124.83771997 -106.55499271 130.65390627 -106.55726719 136.4710722 C-106.5564494 140.96740599 -106.53996432 145.46357096 -106.51826286 149.9598484 C-106.50875873 152.10432473 -106.50281379 154.24882004 -106.50058174 156.39331627 C-106.49403593 159.39364238 -106.46769021 162.39316003 -106.43579102 165.39331055 C-106.43715057 166.26782364 -106.43851013 167.14233673 -106.43991089 168.04335022 C-106.32462972 175.50382495 -104.41355067 181.70689529 -101 188.3125 C-96.71099431 187.37707881 -93.22079713 185.34298654 -89.4375 183.1875 C-87.80745326 182.27054601 -86.17723403 181.35389862 -84.546875 180.4375 C-83.65806641 179.93605469 -82.76925781 179.43460938 -81.85351562 178.91796875 C-76.64334119 175.98657697 -71.41429047 173.08912622 -66.1875 170.1875 C-65.05248047 169.55674561 -63.91746094 168.92599121 -62.74804688 168.27612305 C-52.93034024 162.82127978 -43.09715143 157.39466022 -33.26074219 151.97363281 C-25.58823256 147.74456256 -17.92306763 143.50265459 -10.27514648 139.22924805 C-7.21334529 137.52216559 -4.14244244 135.86553827 -1 134.3125 C-1.4626123 134.99127197 -1.92522461 135.67004395 -2.40185547 136.36938477 C-13.25156887 152.27638557 -13.25156887 152.27638557 -23.96801758 168.27319336 C-28.45585898 175.02404672 -33.01184784 181.72892107 -37.5625 188.4375 C-37.96233093 189.02737701 -38.36216187 189.61725403 -38.77410889 190.2250061 C-39.95414554 191.9656041 -41.13524453 193.70547784 -42.31640625 195.4453125 C-42.6991571 196.01056137 -43.08190796 196.57581024 -43.47625732 197.15818787 C-45.48510085 200.11703663 -47.51877229 203.05450374 -49.59326172 205.96777344 C-50.22106789 206.85503616 -50.22106789 206.85503616 -50.86155701 207.76022339 C-52.02338114 209.39847091 -53.19297868 211.03119757 -54.36303711 212.66357422 C-56.26284658 215.2188516 -56.26284658 215.2188516 -56 218.3125 C-55.44352783 218.61317383 -54.88705566 218.91384766 -54.3137207 219.22363281 C-51.64526993 220.66739536 -48.97863487 222.11446508 -46.3125 223.5625 C-45.32822021 224.09665527 -44.34394043 224.63081055 -43.32983398 225.18115234 C-38.22108907 227.96611232 -33.14094576 230.78856054 -28.109375 233.7109375 C-26.71078247 234.52256348 -26.71078247 234.52256348 -25.28393555 235.35058594 C-23.5080114 236.38615667 -21.73583695 237.42819262 -19.96801758 238.47753906 C-13.35372773 242.33352652 -7.45422085 244.59077869 0.3125 244.6875 C1.33988281 244.71585938 2.36726563 244.74421875 3.42578125 244.7734375 C12.21513859 243.63994661 20.04454317 238.86957674 27.6875 234.625 C28.63923096 234.10188232 29.59096191 233.57876465 30.5715332 233.03979492 C36.97455817 229.49862589 43.29714984 225.84038508 49.52026367 221.99145508 C52.01151812 220.45656412 54.20875965 219.24291345 57 218.3125 C56.38154276 215.18674846 55.34540034 213.03407741 53.55859375 210.40625 C53.05650391 209.66117188 52.55441406 208.91609375 52.03710938 208.1484375 C51.50923828 207.37757813 50.98136719 206.60671875 50.4375 205.8125 C49.41525568 204.30215704 48.39312248 202.79173886 47.37109375 201.28125 C46.83234619 200.48879883 46.29359863 199.69634766 45.73852539 198.87988281 C41.14859541 192.10166294 36.63662229 185.2707033 32.10546875 178.453125 C22.24179203 163.61726134 12.25897216 148.87813965 2 134.3125 C3.13308594 134.96992188 3.13308594 134.96992188 4.2890625 135.640625 C11.65861523 139.8863158 19.08556312 144.00884992 26.5625 148.0625 C34.68092178 152.4682162 42.72687542 156.98241684 50.73242188 161.58959961 C59.24165579 166.47638094 67.82181334 171.2329414 76.4128418 175.97387695 C77.48445557 176.56644287 78.55606934 177.15900879 79.66015625 177.76953125 C80.70703613 178.34783691 81.75391602 178.92614258 82.83251953 179.52197266 C87.09278545 181.93023458 91.27120596 184.46968993 95.43920898 187.03393555 C98.11941646 188.61030116 98.11941646 188.61030116 102 188.3125 C108.41630448 177.32682489 107.71430049 166.17278165 107.62890625 153.8359375 C107.62973636 151.65743898 107.63220108 149.47894054 107.63621521 147.30044556 C107.63906153 142.75316328 107.62448356 138.20637673 107.59692383 133.65917969 C107.56280294 127.85119266 107.5688843 122.04408883 107.5875864 116.23605919 C107.59818804 111.74397508 107.58919045 107.25209409 107.57420158 102.76002884 C107.56904531 100.6191633 107.56947029 98.47827633 107.57574654 96.33741379 C107.58123871 93.33955471 107.56069707 90.34293266 107.53344727 87.34521484 C107.53997314 86.47429703 107.54649902 85.60337921 107.55322266 84.70606995 C107.41624646 75.77768285 104.46030137 67.8029734 98.2578125 61.2890625 C88.61561237 52.84796688 76.40680671 47.0722992 65.2890625 40.84765625 C58.70496937 37.1574535 52.16151975 33.39869037 45.625 29.625 C44.53098877 28.99480957 43.43697754 28.36461914 42.30981445 27.71533203 C37.48210918 24.92864635 32.66675755 22.12691787 27.89453125 19.24609375 C27.13124512 18.7874292 26.36795898 18.32876465 25.58154297 17.85620117 C24.22029987 17.0348362 22.86329595 16.20637117 21.51220703 15.3684082 C14.77461938 11.30516609 8.00299024 8.88426545 0.0625 8.875 C-1.59072266 8.84599609 -1.59072266 8.84599609 -3.27734375 8.81640625 C-12.73875973 10.07726651 -20.79107869 15.27953395 -28.875 20.0625 Z " fill="#FBFBFB" transform="translate(127,1.6875)"/>
<path d="M0 0 C5.27682564 4.67579723 8.79606214 10.43988476 12.625 16.3125 C14.05376903 18.48107416 15.48345895 20.64904187 16.9140625 22.81640625 C17.61047852 23.87359863 18.30689453 24.93079102 19.02441406 26.02001953 C22.02427995 30.54502732 25.10006138 35.01549805 28.19775391 39.47387695 C30.75827348 43.16703615 33.26410008 46.89282329 35.75 50.63671875 C38.6273896 54.96429648 41.54511444 59.26012462 44.5 63.53515625 C45.24121094 64.61087891 45.98242188 65.68660156 46.74609375 66.79492188 C47.88698236 68.44891378 49.0280575 70.10279262 50.17626953 71.75170898 C51.31140184 73.38343211 52.43711332 75.02169645 53.5625 76.66015625 C54.22378906 77.61543213 54.88507813 78.57070801 55.56640625 79.55493164 C57 82 57 82 57 85 C56.33097656 85.31710938 55.66195312 85.63421875 54.97265625 85.9609375 C48.64713127 89.0345483 42.54942184 92.355739 36.5 95.9375 C35.41054077 96.58223267 35.41054077 96.58223267 34.29907227 97.23999023 C31.04284101 99.17398317 27.79579739 101.1216679 24.5625 103.09375 C14.17529105 109.34727376 4.40099814 113.41645808 -7.98608398 110.53857422 C-14.85799531 108.48311917 -20.87690927 104.93842271 -27.0625 101.375 C-28.1548999 100.75415527 -29.2472998 100.13331055 -30.37280273 99.49365234 C-32.5614742 98.24947717 -34.74844287 97.00230119 -36.93359375 95.75195312 C-41.13075988 93.35395438 -45.34595723 90.98869327 -49.5625 88.625 C-51.70878687 87.41747018 -53.85437803 86.20871104 -56 85 C-55.36130575 81.24229367 -53.66266134 78.73358268 -51.5234375 75.61328125 C-50.43820801 74.0192749 -50.43820801 74.0192749 -49.33105469 72.39306641 C-48.94816284 71.83605042 -48.565271 71.27903442 -48.17077637 70.70513916 C-47.0150365 69.02189943 -45.86788407 67.33315632 -44.72363281 65.64208984 C-42.76942491 62.75436627 -40.8101028 59.87016542 -38.84899902 56.98712158 C-30.75205092 45.08800117 -30.75205092 45.08800117 -22.75 33.125 C-18.56608374 26.82320755 -14.32066514 20.56434331 -10.0625 14.3125 C-9.41055664 13.35424316 -8.75861328 12.39598633 -8.08691406 11.40869141 C-7.47170898 10.50683105 -6.85650391 9.6049707 -6.22265625 8.67578125 C-5.67359619 7.87052002 -5.12453613 7.06525879 -4.55883789 6.2355957 C-3.08381836 4.12020747 -1.56082247 2.05263267 0 0 Z " fill="#FE510C" transform="translate(127,135)"/>
<path d="M0 0 C1.93359375 0.0859375 1.93359375 0.0859375 4 1 C5.16015625 3.4765625 5.16015625 3.4765625 6.0625 6.625 C6.68787615 8.75611013 7.33494777 10.88093624 8 13 C8.48726562 14.79244141 8.48726562 14.79244141 8.984375 16.62109375 C11.95587098 21.60238062 15.86651389 22.58752495 21.1875 24.4375 C22.59805664 24.9624707 22.59805664 24.9624707 24.03710938 25.49804688 C26.35067129 26.35535662 28.67023132 27.18800008 31 28 C31 28.99 31 29.98 31 31 C29.33710938 31.61488281 29.33710938 31.61488281 27.640625 32.2421875 C26.17703971 32.78634101 24.71350045 33.33061835 23.25 33.875 C22.52039063 34.14441406 21.79078125 34.41382813 21.0390625 34.69140625 C19.62800262 35.21734675 18.22073367 35.75359503 16.81787109 36.30102539 C15.45492624 36.82508007 14.07117189 37.29553622 12.6796875 37.73828125 C9.85506812 39.86003023 9.03432686 43.09521462 7.875 46.3125 C7.49794922 47.30926758 7.49794922 47.30926758 7.11328125 48.32617188 C6.39993829 50.21410312 5.69964852 52.106951 5 54 C4.33937221 55.66906955 3.67553119 57.33690655 3 59 C1.07788086 58.73901367 1.07788086 58.73901367 -1 58 C-1.79858398 56.3293457 -1.79858398 56.3293457 -2.24609375 54.17578125 C-4.26938461 44.82599151 -4.26938461 44.82599151 -9.99609375 37.578125 C-13.30066321 36.09584413 -16.51548602 34.97803491 -20 34 C-21.60932625 33.38840806 -23.21460587 32.76586663 -24.8125 32.125 C-25.864375 31.75375 -26.91625 31.3825 -28 31 C-27.75048828 29.07836914 -27.75048828 29.07836914 -27 27 C-25.25341797 26.20483398 -25.25341797 26.20483398 -22.9921875 25.74609375 C-13.61640511 23.68055106 -13.61640511 23.68055106 -6.43359375 17.83740234 C-4.07694971 13.02276342 -2.62354877 7.9668798 -1.45458984 2.74658203 C-1 1 -1 1 0 0 Z " fill="#F6F6F9" transform="translate(127,51)"/>
</svg>
